<svg width="748" height="502" viewBox="0 0 748 502" fill="none" xmlns="http://www.w3.org/2000/svg">
<g id="camper_nobg">
<g id="tire">
<path id="Vector" d="M288.5 353.3C289.6 365.2 278 375.1 264.1 374.1C253.1 373.4 244.2 365.8 243.4 356.4C242.3 344.5 253.9 334.6 267.8 335.6C278.8 336.3 287.7 343.9 288.5 353.3Z" fill="black" stroke="black" stroke-miterlimit="10"/>
<path id="Vector_2" d="M265.4 361.7C271.309 361.7 276.1 356.909 276.1 351C276.1 345.091 271.309 340.3 265.4 340.3C259.491 340.3 254.7 345.091 254.7 351C254.7 356.909 259.491 361.7 265.4 361.7Z" fill="white" stroke="black" stroke-miterlimit="10"/>
</g>
<g id="steps">
<path id="Vector_3" d="M466.4 392.2H375.6L379.9 379.7H462.1L466.4 392.2Z" fill="#005082"/>
<path id="Vector_4" d="M464.9 377.2H377.1L382.1 363.9H459.9L464.9 377.2Z" fill="#005082"/>
<path id="Vector_5" d="M386.5 377V382" stroke="black" stroke-width="3" stroke-miterlimit="10"/>
<path id="Vector_6" d="M452.5 377V382" stroke="black" stroke-width="3" stroke-miterlimit="10"/>
</g>
<g id="main">
<g id="Group">
<g id="Group_2">
<path id="Vector_7" d="M263.2 258.7C259.1 256.6 262.1 252.6 264.5 251.2C266.8 249.8 270.1 249.7 272.7 249.6C277.1 249.5 281.2 251.3 285.5 251.3C289.5 251.3 293.5 249.4 297.2 248.1C302.9 246.1 308.8 245.8 314.6 246.8C316.5 247.1 317.3 244.2 315.4 243.9C308.2 242.6 301.6 243.3 294.8 245.7C291.1 247 287.7 248.3 283.8 248.2C280.1 248.2 276.4 246.6 272.7 246.5C268.5 246.4 261.3 247.4 259.2 251.8C257.5 255.3 258 259.3 261.7 261.2C263.4 262.2 264.9 259.6 263.2 258.7Z" fill="black"/>
</g>
</g>
<g id="Group_3">
<path id="Vector_8" d="M152.9 339.2V248.6C152.9 236.3 155.2 224.1 159.8 212.7L172.7 180.3C177.6 168 189.5 159.9 202.8 159.9H470.6C479.8 159.9 488.6 163.6 495.1 170.1L551.4 226.7C554.3 229.7 556 233.7 556 237.9V348C556 356.8 548.8 363.9 540 363.8L305.8 361C301.7 361 297.8 359.3 294.9 356.4L288.6 350.2C285.6 347.3 281.7 345.6 277.5 345.6H255.7C251.5 345.6 247.5 347.3 244.5 350.2L236.1 358.6C233.2 361.5 229.2 363.2 225.1 363.2L169.1 363.7C160.3 363.8 153.1 356.7 153.1 347.9V339.2" fill="#005082"/>
<path id="Vector_9" d="M555.4 338.6H153.2V356H555.4V338.6Z" fill="#00A8CC"/>
</g>
</g>
<g id="stripes">
<path id="Vector_10" d="M555.9 244.7H153V288.1H555.9V244.7Z" fill="#00A8CC"/>
</g>
<g id="window">
<path id="XMLID 9" d="M350.3 263.5H203.9C201.9 263.5 200.2 261.9 200.2 259.8V205.5C200.2 203.5 201.8 201.8 203.9 201.8H350.3C352.3 201.8 354 203.4 354 205.5V259.8C354 261.9 352.3 263.5 350.3 263.5Z" fill="#000827" stroke="black" stroke-miterlimit="10"/>
<path id="XMLID 8" d="M346.2 261.9H208C206 261.9 204.3 260.3 204.3 258.2V207.2C204.3 205.2 205.9 203.5 208 203.5H346.2C348.2 203.5 349.9 205.1 349.9 207.2V258.2C349.9 260.3 348.2 261.9 346.2 261.9Z" fill="#FFA41B" stroke="black" stroke-miterlimit="10"/>
<g id="Vector_11">
<path d="M204 231.5H349.6L349.5 234.5H204.5V232" fill="#000839"/>
<path d="M204 231.5H349.6L349.5 234.5H204.5V232" stroke="black" stroke-miterlimit="10"/>
</g>
</g>
<g id="door">
<path id="Vector_12" d="M458.5 354.3V207.6C458.5 205.9 457.1 204.6 455.5 204.6H383.8C382.1 204.6 380.8 206 380.8 207.6V354.4C380.8 356.1 382.2 357.4 383.8 357.4H455.5C457.2 357.4 458.5 356 458.5 354.3Z" fill="#FFA41B" stroke="#000827" stroke-width="5" stroke-miterlimit="10"/>
<path id="Vector_13" d="M458.9 260H409.2V282.7H458.9V260Z" stroke="black" stroke-width="3" stroke-miterlimit="10"/>
<path id="Vector_14" d="M445.1 260H384.3V282.7H445.1V260Z" fill="#80520E" stroke="black" stroke-width="3" stroke-miterlimit="10"/>
<path id="Vector_15" d="M446 260H409.8V282.7H446V260Z" fill="#402907" stroke="black" stroke-width="3" stroke-miterlimit="10"/>
<path id="Vector_16" d="M446 266.9H432.4V282.7H446V266.9Z" fill="black" stroke="black" stroke-miterlimit="10"/>
</g>
<g id="cat">
<g id="Group_4">
<path id="Vector_17" d="M334 261.7C334.9 260.9 334.4 259.3 333.4 258.7C332.4 258.1 331.1 258.1 329.9 258.1C326.9 258.2 323.8 257.9 320.8 257.3C319.3 257 317.7 256.2 317.7 254.7C317.7 252.6 314 247.9 316.9 247.9C319.8 247.9 320.2 244.6 320.2 244.6C320.2 239 317.9 241.5 317.5 237.9C316.6 238.5 315.6 239.1 314.6 239.5C312.5 240.3 309.8 240.3 308.4 238.7C309.2 241 308.4 243.8 306.5 245.4C305 246.7 303 247.2 301 247.4C296.1 247.9 291.2 246.9 286.2 246.5C281.3 246.1 276 246.5 272 249.5C269.2 251.6 267.4 254.7 264.7 256.8C260.9 259.7 255.9 260.4 251.2 261C251.2 261 246.6 263.7 265.8 260.6C267.5 260.1 270.4 261.4 270.4 261.4L334 261.7Z" fill="#000827"/>
<g id="Group_5">
<path id="Vector_18" d="M334.4 262C335.1 261.1 335.2 259.6 334.2 258.8C332.5 257.3 330.2 257.7 328.1 257.7C325.6 257.7 318.5 258 318.3 254.5C318.2 252.9 317.1 251.3 316.6 249.8C316.2 248.5 318.9 248.2 319.7 247.4C320.4 246.7 320.8 245.7 320.9 244.8C321.1 243.6 320.8 242 320.1 240.9C319.4 239.7 318.4 239.5 318.2 237.9C318.2 237.6 317.7 237.4 317.5 237.6C315.1 239.2 311.5 240.8 308.9 238.4C308.5 238.1 307.9 238.4 308.1 238.9C311 249.4 294.8 247 289.2 246.3C283.5 245.6 276.7 245.3 271.9 249.1C269.4 251.1 267.5 253.7 265.2 255.9C262.3 258.5 258.2 259.4 254.5 260C253.7 260.1 250.9 259.8 250.5 261.2C249.8 263.9 265.4 261 266.2 260.9C268.2 260.6 269.9 261.7 271.9 261.7C274 261.7 276.1 261.7 278.2 261.7C296.9 261.8 315.5 262 334.2 262.1C334.8 262.1 334.8 261.1 334.2 261.1C322.9 261 311.5 260.9 300.2 260.9C292.9 260.8 285.5 260.8 278.2 260.7C276.1 260.7 274 260.7 271.9 260.7C270 260.7 268.6 259.8 266.6 259.8C264.7 259.8 262.7 260.4 260.8 260.7C258.9 261 257 261.2 255.1 261.3C254.2 261.4 253.2 261.4 252.3 261.4C251.9 261.4 251.4 261.1 251.5 261.4C251.5 261.6 251.5 261.4 251.6 261.4C252 261.1 252.8 261.2 253.2 261.2C257.4 260.6 262 259.9 265.4 257.1C269.3 253.9 271.6 249.6 276.6 247.9C281.5 246.2 287.1 247.1 292.1 247.6C296.6 248.1 301.6 248.7 305.9 246.7C308.9 245.3 310 241.6 309.2 238.6C308.9 238.8 308.6 238.9 308.4 239.1C311.3 241.8 315.3 240.4 318.2 238.4C318 238.3 317.7 238.2 317.5 238.1C317.9 240.8 320.7 241.6 320.2 244.7C320.1 245.2 319.9 245.6 319.7 246.1C319.1 247.4 318 247.2 316.8 247.6C316 247.9 315.7 248.4 315.7 249.2C315.7 250.3 316.4 251.5 316.9 252.6C317.5 254 317.5 255.6 318.5 256.8C319.7 258.2 322.2 258.2 323.9 258.4C325.4 258.6 326.9 258.7 328.4 258.7C329 258.7 329.6 258.7 330.2 258.7C331.1 258.7 336 258.6 333.8 261.5C333.1 262 334 262.5 334.4 262Z" fill="black"/>
</g>
</g>
</g>
<g id="lights">
<path id="Vector_19" d="M137.5 202.3C137.5 202.3 333.5 268.7 539.2 201.9" stroke="black" stroke-miterlimit="10"/>
<g id="Group_6">
<path id="Vector_20" d="M148.2 215.4C149.3 215.6 150.4 214.9 151 213.9C151.1 213.7 151.2 213.5 151.3 213.2C151.4 212.7 151.2 212.3 151 211.8C150.5 210.2 150 208.7 149 207V206H147.3L147.2 207.3C146.8 209 145.9 210.3 145.4 212C145.3 212.4 145.2 212.9 145.3 213.3C145.3 213.5 145.4 213.7 145.6 213.9C146.2 214.9 147.3 215.6 148.4 215.4" fill="white"/>
<g id="Group_7">
<path id="Vector_21" d="M148.2 215.9C150.2 216 151.7 214.5 151.8 212.5C151.8 211.4 151 210.1 150.6 209.2C150 207.9 149.8 206.9 149.8 205.5C149.8 205.2 149.6 205 149.3 205C148.7 205 148 205 147.4 205C147.1 205 146.9 205.2 146.9 205.5C146.8 206.4 146.7 207.2 146.4 208.1C146 209.4 144.7 211.1 144.8 212.5C144.8 214.5 146.3 216 148.4 215.9C149 215.9 149 214.9 148.4 214.9C144.2 215.2 146.7 210.3 147.4 208.4C147.8 207.4 147.8 206.5 147.9 205.5C147.7 205.7 147.6 205.8 147.4 206C148 206 148.7 206 149.3 206C149.1 205.8 149 205.7 148.8 205.5C148.8 206.6 148.8 207.4 149.2 208.4C149.9 210.3 152.6 215.2 148.2 214.9C147.5 214.9 147.5 215.9 148.2 215.9Z" fill="white"/>
</g>
</g>
<g id="Group_8">
<path id="Vector_22" d="M172.3 222.6C173.4 222.8 174.5 222.1 175.1 221.1C175.2 220.9 175.3 220.7 175.4 220.4C175.5 219.9 175.2 219.5 175.1 219C174.6 217.4 174.1 215.9 173.1 214.2V213H171.6L171.5 214.4C171.1 216.1 170.2 217.5 169.7 219.1C169.6 219.5 169.5 220 169.6 220.4C169.6 220.6 169.7 220.8 169.9 221.1C170.5 222.1 171.6 222.8 172.7 222.6" fill="white"/>
<g id="Group_9">
<path id="Vector_23" d="M172.3 223.1C174.3 223.2 175.8 221.7 175.9 219.7C175.9 218.6 175.1 217.3 174.7 216.4C174.1 215.1 173.9 214.1 173.9 212.7C173.9 212.4 173.7 212.2 173.4 212.2C172.8 212.2 172.1 212.2 171.5 212.2C171.2 212.2 171 212.4 171 212.7C170.9 213.6 170.8 214.4 170.5 215.3C170.1 216.6 168.8 218.3 168.9 219.7C168.9 221.7 170.4 223.2 172.5 223.1C173.1 223.1 173.1 222.1 172.5 222.1C168.3 222.4 170.8 217.5 171.5 215.6C171.9 214.6 171.9 213.7 172 212.7C171.8 212.9 171.7 213 171.5 213.2C172.1 213.2 172.8 213.2 173.4 213.2C173.2 213 173.1 212.9 172.9 212.7C172.9 213.8 172.9 214.6 173.3 215.6C174 217.5 176.7 222.4 172.3 222.1C171.6 222 171.6 223 172.3 223.1Z" fill="white"/>
</g>
</g>
<g id="Group_10">
<path id="Vector_24" d="M192.8 227C193.9 227.2 195 226.5 195.6 225.5C195.7 225.3 195.8 225.1 195.9 224.8C196 224.3 195.9 223.9 195.8 223.4C195.3 221.8 194 220.3 194 218.6V217H192L191.9 218.6C191.5 220.3 190.6 221.8 190.1 223.4C190 223.8 189.9 224.3 190 224.8C190 225 190.1 225.3 190.3 225.5C190.9 226.5 192 227.2 193.1 227" fill="white"/>
<g id="Group_11">
<path id="Vector_25" d="M192.8 227.5C194.8 227.6 196.3 226.1 196.4 224.1C196.4 223 195.6 221.7 195.2 220.8C194.6 219.5 194.4 218.5 194.4 217.1C194.4 216.8 194.2 216.6 193.9 216.6C193.3 216.6 192.6 216.6 192 216.6C191.7 216.6 191.5 216.8 191.5 217.1C191.4 218 191.3 218.8 191 219.7C190.6 221 189.3 222.7 189.4 224.1C189.4 226.1 190.9 227.6 193 227.5C193.6 227.5 193.6 226.5 193 226.5C188.8 226.8 191.3 221.9 192 220C192.4 219 192.4 218.1 192.5 217.1C192.3 217.3 192.2 217.4 192 217.6C192.6 217.6 193.3 217.6 193.9 217.6C193.7 217.4 193.6 217.3 193.4 217.1C193.4 218.2 193.4 219 193.8 220C194.5 221.9 197.2 226.8 192.8 226.5C192.2 226.5 192.2 227.5 192.8 227.5Z" fill="white"/>
</g>
</g>
<g id="Group_12">
<path id="Vector_26" d="M218.7 231.5C219.8 231.7 220.9 231 221.5 230C221.6 229.8 221.7 229.6 221.8 229.3C221.9 228.8 221.9 228.4 221.7 227.9C221.2 226.3 220 224.8 220 223.1V222H217.9L217.8 223.3C217.4 225 216.5 226.4 216 228C215.9 228.4 215.8 228.9 215.9 229.3C215.9 229.5 216 229.7 216.2 230C216.8 231 217.9 231.7 219 231.5" fill="white"/>
<g id="Group_13">
<path id="Vector_27" d="M218.7 232C220.7 232.1 222.2 230.6 222.3 228.6C222.3 227.5 221.5 226.2 221.1 225.3C220.5 224 220.3 223 220.3 221.6C220.3 221.3 220.1 221.1 219.8 221.1C219.2 221.1 218.5 221.1 217.9 221.1C217.6 221.1 217.4 221.3 217.4 221.6C217.3 222.5 217.2 223.3 216.9 224.2C216.5 225.5 215.2 227.2 215.3 228.6C215.3 230.6 216.8 232.1 218.9 232C219.5 232 219.5 231 218.9 231C214.7 231.3 217.2 226.4 217.9 224.5C218.3 223.5 218.3 222.6 218.4 221.6C218.2 221.8 218.1 221.9 217.9 222.1C218.5 222.1 219.2 222.1 219.8 222.1C219.6 221.9 219.5 221.8 219.3 221.6C219.3 222.7 219.3 223.5 219.7 224.5C220.4 226.4 223.1 231.3 218.7 231C218.1 231 218.1 232 218.7 232Z" fill="white"/>
</g>
</g>
<g id="Group_14">
<path id="Vector_28" d="M247.3 236C248.4 236.2 249.5 235.5 250.1 234.5C250.2 234.3 250.3 234.1 250.4 233.8C250.5 233.3 250.2 232.9 250.1 232.4C249.6 230.8 249.1 229.3 248.1 227.6V226H246.6L246.5 227.6C246.1 229.3 245.2 230.8 244.7 232.4C244.6 232.8 244.5 233.3 244.6 233.8C244.6 234 244.7 234.3 244.9 234.5C245.5 235.5 246.6 236.2 247.7 236" fill="white"/>
<g id="Group_15">
<path id="Vector_29" d="M247.3 236.5C249.3 236.6 250.8 235.1 250.9 233.1C250.9 232 250.1 230.7 249.7 229.8C249.1 228.5 248.9 227.5 248.9 226.1C248.9 225.8 248.7 225.6 248.4 225.6C247.8 225.6 247.1 225.6 246.5 225.6C246.2 225.6 246 225.8 246 226.1C245.9 227 245.8 227.8 245.5 228.7C245.1 230 243.8 231.7 243.9 233.1C243.9 235.1 245.4 236.6 247.5 236.5C248.1 236.5 248.1 235.5 247.5 235.5C243.3 235.8 245.8 230.9 246.5 229C246.9 228 246.9 227.1 247 226.1C246.8 226.3 246.7 226.4 246.5 226.6C247.1 226.6 247.8 226.6 248.4 226.6C248.2 226.4 248.1 226.3 247.9 226.1C247.9 227.2 247.9 228 248.3 229C249 230.9 251.7 235.8 247.3 235.5C246.7 235.4 246.7 236.4 247.3 236.5Z" fill="white"/>
</g>
</g>
<g id="Group_16">
<path id="Vector_30" d="M276.8 239.6C277.9 239.8 279 239.1 279.6 238.1C279.7 237.9 279.8 237.7 279.9 237.4C280 236.9 279.9 236.5 279.8 236C279.3 234.4 278 232.9 278 231.2V230H276L275.9 231.4C275.5 233.1 274.6 234.5 274.1 236.1C274 236.5 273.9 237 274 237.4C274 237.6 274.1 237.8 274.3 238.1C274.9 239.1 276 239.8 277.1 239.6" fill="white"/>
<g id="Group_17">
<path id="Vector_31" d="M276.8 240.1C278.8 240.2 280.3 238.7 280.4 236.7C280.4 235.6 279.6 234.3 279.2 233.4C278.6 232.1 278.4 231.1 278.4 229.7C278.4 229.4 278.2 229.2 277.9 229.2C277.3 229.2 276.6 229.2 276 229.2C275.7 229.2 275.5 229.4 275.5 229.7C275.4 230.6 275.3 231.4 275 232.3C274.6 233.6 273.3 235.3 273.4 236.7C273.4 238.7 274.9 240.2 277 240.1C277.6 240.1 277.6 239.1 277 239.1C272.8 239.4 275.3 234.5 276 232.6C276.4 231.6 276.4 230.7 276.5 229.7C276.3 229.9 276.2 230 276 230.2C276.6 230.2 277.3 230.2 277.9 230.2C277.7 230 277.6 229.9 277.4 229.7C277.4 230.8 277.4 231.6 277.8 232.6C278.5 234.5 281.2 239.4 276.8 239.1C276.2 239 276.2 240 276.8 240.1Z" fill="white"/>
</g>
</g>
<g id="Group_18">
<path id="Vector_32" d="M303.6 241.3C304.7 241.5 305.8 240.8 306.4 239.8C306.5 239.6 306.6 239.4 306.7 239.1C306.8 238.6 306.8 238.2 306.7 237.7C306.2 236.1 305 234.6 305 232.9V230.9H302.8L302.7 232.6C302.3 234.3 301.4 235.9 300.9 237.5C300.8 237.9 300.7 238.5 300.8 238.9C300.8 239.1 300.9 239.4 301.1 239.6C301.7 240.6 302.8 241.4 303.9 241.1" fill="white"/>
<g id="Group_19">
<path id="Vector_33" d="M303.6 241.8C305.6 241.9 307.1 240.4 307.2 238.4C307.2 237.3 306.4 236 306 235.1C305.4 233.8 305.2 232.8 305.2 231.4C305.2 231.1 305 230.9 304.7 230.9C304.1 230.9 303.4 230.9 302.8 230.9C302.5 230.9 302.3 231.1 302.3 231.4C302.2 232.3 302.1 233.1 301.8 234C301.4 235.3 300.1 237 300.2 238.4C300.2 240.4 301.7 241.9 303.8 241.8C304.4 241.8 304.4 240.8 303.8 240.8C299.6 241.1 302.1 236.2 302.8 234.3C303.2 233.3 303.2 232.4 303.3 231.4C303.1 231.6 303 231.7 302.8 231.9C303.4 231.9 304.1 231.9 304.7 231.9C304.5 231.7 304.4 231.6 304.2 231.4C304.2 232.5 304.2 233.3 304.6 234.3C305.3 236.2 308 241.1 303.6 240.8C303 240.8 303 241.8 303.6 241.8Z" fill="white"/>
</g>
</g>
<g id="Group_20">
<path id="Vector_34" d="M333.1 242.2C334.2 242.4 335.3 241.7 335.9 240.7C336 240.5 336.1 240.3 336.2 240C336.3 239.5 336.1 239.1 336 238.6C335.5 237 335.1 235.5 334.1 233.8V232H332.4L332.3 233.7C331.9 235.4 331 236.9 330.5 238.6C330.4 239 330.3 239.6 330.4 240C330.4 240.2 330.5 240.5 330.7 240.7C331.3 241.7 332.4 242.4 333.5 242.2" fill="white"/>
<g id="Group_21">
<path id="Vector_35" d="M333.1 242.7C335.1 242.8 336.6 241.3 336.7 239.3C336.7 238.2 335.9 236.9 335.5 236C334.9 234.7 334.7 233.7 334.7 232.3C334.7 232 334.5 231.8 334.2 231.8C333.6 231.8 332.9 231.8 332.3 231.8C332 231.8 331.8 232 331.8 232.3C331.7 233.2 331.6 234 331.3 234.9C330.9 236.2 329.6 237.9 329.7 239.3C329.7 241.3 331.2 242.8 333.3 242.7C333.9 242.7 333.9 241.7 333.3 241.7C329.1 242 331.6 237.1 332.3 235.2C332.7 234.2 332.7 233.3 332.8 232.3C332.6 232.5 332.5 232.6 332.3 232.8C332.9 232.8 333.6 232.8 334.2 232.8C334 232.6 333.9 232.5 333.7 232.3C333.7 233.4 333.7 234.2 334.1 235.2C334.8 237.1 337.5 242 333.1 241.7C332.5 241.7 332.5 242.7 333.1 242.7Z" fill="white"/>
</g>
</g>
<g id="Group_22">
<path id="Vector_36" d="M358.1 241.3C359.2 241.5 360.3 240.8 360.9 239.8C361 239.6 361.1 239.4 361.2 239.1C361.3 238.6 361.1 238.2 361 237.7C360.5 236.1 360.1 234.6 359.1 232.9V230.9H357.4L357.3 232.6C356.9 234.3 356 235.9 355.5 237.5C355.4 237.9 355.3 238.5 355.4 238.9C355.4 239.1 355.5 239.4 355.7 239.6C356.3 240.6 357.4 241.4 358.5 241.1" fill="white"/>
<g id="Group_23">
<path id="Vector_37" d="M358.1 241.8C360.1 241.9 361.6 240.4 361.7 238.4C361.7 237.3 360.9 236 360.5 235.1C359.9 233.8 359.7 232.8 359.7 231.4C359.7 231.1 359.5 230.9 359.2 230.9C358.6 230.9 357.9 230.9 357.3 230.9C357 230.9 356.8 231.1 356.8 231.4C356.7 232.3 356.6 233.1 356.3 234C355.9 235.3 354.6 237 354.7 238.4C354.7 240.4 356.2 241.9 358.3 241.8C358.9 241.8 358.9 240.8 358.3 240.8C354.1 241.1 356.6 236.2 357.3 234.3C357.7 233.3 357.7 232.4 357.8 231.4C357.6 231.6 357.5 231.7 357.3 231.9C357.9 231.9 358.6 231.9 359.2 231.9C359 231.7 358.9 231.6 358.7 231.4C358.7 232.5 358.7 233.3 359.1 234.3C359.8 236.2 362.5 241.1 358.1 240.8C357.5 240.8 357.5 241.8 358.1 241.8Z" fill="white"/>
</g>
</g>
<g id="Group_24">
<path id="Vector_38" d="M383.2 240.4C384.3 240.6 385.4 239.9 386 238.9C386.1 238.7 386.2 238.5 386.3 238.2C386.4 237.7 386.2 237.3 386 236.8C385.5 235.2 385 233.7 384 232V231H382.3L382.2 232.3C381.8 234 380.9 235.3 380.4 237C380.3 237.4 380.2 237.9 380.3 238.3C380.3 238.5 380.4 238.7 380.6 238.9C381.2 239.9 382.3 240.6 383.4 240.4" fill="white"/>
<g id="Group_25">
<path id="Vector_39" d="M383.2 240.9C385.2 241 386.7 239.5 386.8 237.5C386.8 236.4 386 235.1 385.6 234.2C385 232.9 384.8 231.9 384.8 230.5C384.8 230.2 384.6 230 384.3 230C383.7 230 383 230 382.4 230C382.1 230 381.9 230.2 381.9 230.5C381.8 231.4 381.7 232.2 381.4 233.1C381 234.4 379.7 236.1 379.8 237.5C379.8 239.5 381.3 241 383.4 240.9C384 240.9 384 239.9 383.4 239.9C379.2 240.2 381.7 235.3 382.4 233.4C382.8 232.4 382.8 231.5 382.9 230.5C382.7 230.7 382.6 230.8 382.4 231C383 231 383.7 231 384.3 231C384.1 230.8 384 230.7 383.8 230.5C383.8 231.6 383.8 232.4 384.2 233.4C384.9 235.3 387.6 240.2 383.2 239.9C382.5 239.9 382.5 240.9 383.2 240.9Z" fill="white"/>
</g>
</g>
<g id="Group_26">
<path id="Vector_40" d="M407.3 238.7C408.4 238.9 409.5 238.2 410.1 237.2C410.2 237 410.3 236.8 410.4 236.5C410.5 236 410.2 235.6 410.1 235.1C409.6 233.5 409.1 232 408.1 230.3V229H406.6L406.5 230.4C406.1 232.1 405.2 233.5 404.7 235.1C404.6 235.5 404.5 236 404.6 236.5C404.6 236.7 404.7 236.9 404.9 237.2C405.5 238.2 406.6 238.9 407.7 238.7" fill="white"/>
<g id="Group_27">
<path id="Vector_41" d="M407.3 239.2C409.3 239.3 410.8 237.8 410.9 235.8C410.9 234.7 410.1 233.4 409.7 232.5C409.1 231.2 408.9 230.2 408.9 228.8C408.9 228.5 408.7 228.3 408.4 228.3C407.8 228.3 407.1 228.3 406.5 228.3C406.2 228.3 406 228.5 406 228.8C405.9 229.7 405.8 230.5 405.5 231.4C405.1 232.7 403.8 234.4 403.9 235.8C403.9 237.8 405.4 239.3 407.5 239.2C408.1 239.2 408.1 238.2 407.5 238.2C403.3 238.5 405.8 233.6 406.5 231.7C406.9 230.7 406.9 229.8 407 228.8C406.8 229 406.7 229.1 406.5 229.3C407.1 229.3 407.8 229.3 408.4 229.3C408.2 229.1 408.1 229 407.9 228.8C407.9 229.9 407.9 230.7 408.3 231.7C409 233.6 411.7 238.5 407.3 238.2C406.6 238.1 406.6 239.1 407.3 239.2Z" fill="white"/>
</g>
</g>
<g id="Group_28">
<path id="Vector_42" d="M431.4 236C432.5 236.2 433.6 235.5 434.2 234.5C434.3 234.3 434.4 234.1 434.5 233.8C434.6 233.3 434.3 232.9 434.1 232.4C433.6 230.8 433 229.3 432 227.6V226H430.6L430.5 227.6C430.1 229.3 429.2 230.8 428.7 232.4C428.6 232.8 428.5 233.3 428.6 233.8C428.6 234 428.7 234.3 428.9 234.5C429.5 235.5 430.6 236.2 431.7 236" fill="white"/>
<g id="Group_29">
<path id="Vector_43" d="M431.4 236.5C433.4 236.6 434.9 235.1 435 233.1C435 232 434.2 230.7 433.8 229.8C433.2 228.5 433 227.5 433 226.1C433 225.8 432.8 225.6 432.5 225.6C431.9 225.6 431.2 225.6 430.6 225.6C430.3 225.6 430.1 225.8 430.1 226.1C430 227 429.9 227.8 429.6 228.7C429.2 230 427.9 231.7 428 233.1C428 235.1 429.5 236.6 431.6 236.5C432.2 236.5 432.2 235.5 431.6 235.5C427.4 235.8 429.9 230.9 430.6 229C431 228 431 227.1 431.1 226.1C430.9 226.3 430.8 226.4 430.6 226.6C431.2 226.6 431.9 226.6 432.5 226.6C432.3 226.4 432.2 226.3 432 226.1C432 227.2 432 228 432.4 229C433.1 230.9 435.8 235.8 431.4 235.5C430.8 235.4 430.8 236.4 431.4 236.5Z" fill="white"/>
</g>
</g>
<g id="Group_30">
<path id="Vector_44" d="M455.5 232.4C456.6 232.6 457.7 231.9 458.3 230.9C458.4 230.7 458.5 230.5 458.6 230.2C458.7 229.7 458.8 229.3 458.7 228.8C458.2 227.2 457.1 225.7 457.1 224V222H454.8L454.7 223.8C454.3 225.5 453.4 227.1 452.9 228.7C452.8 229.1 452.7 229.7 452.8 230.1C452.8 230.3 452.9 230.6 453.1 230.8C453.7 231.8 454.8 232.6 455.9 232.3" fill="white"/>
<g id="Group_31">
<path id="Vector_45" d="M455.5 232.9C457.5 233 459 231.5 459.1 229.5C459.1 228.4 458.3 227.1 457.9 226.2C457.3 224.9 457.1 223.9 457.1 222.5C457.1 222.2 456.9 222 456.6 222C456 222 455.3 222 454.7 222C454.4 222 454.2 222.2 454.2 222.5C454.1 223.4 454 224.2 453.7 225.1C453.3 226.4 452 228.1 452.1 229.5C452.1 231.5 453.6 233 455.7 232.9C456.3 232.9 456.3 231.9 455.7 231.9C451.5 232.2 454 227.3 454.7 225.4C455.1 224.4 455.1 223.5 455.2 222.5C455 222.7 454.9 222.8 454.7 223C455.3 223 456 223 456.6 223C456.4 222.8 456.3 222.7 456.1 222.5C456.1 223.6 456.1 224.4 456.5 225.4C457.2 227.3 459.9 232.2 455.5 231.9C454.9 231.9 454.9 232.9 455.5 232.9Z" fill="white"/>
</g>
</g>
<g id="Group_32">
<path id="Vector_46" d="M478.8 227.9C479.9 228.1 481 227.4 481.6 226.4C481.7 226.2 481.8 226 481.9 225.7C482 225.2 482 224.8 481.8 224.3C481.3 222.7 480 221.2 480 219.5V218H477.9L477.8 219.5C477.4 221.2 476.5 222.7 476 224.3C475.9 224.7 475.8 225.2 475.9 225.7C475.9 225.9 476 226.2 476.2 226.4C476.8 227.4 477.9 228.1 479 227.9" fill="white"/>
<g id="Group_33">
<path id="Vector_47" d="M478.8 228.4C480.8 228.5 482.3 227 482.4 225C482.4 223.9 481.6 222.6 481.2 221.7C480.6 220.4 480.4 219.4 480.4 218C480.4 217.7 480.2 217.5 479.9 217.5C479.3 217.5 478.6 217.5 478 217.5C477.7 217.5 477.5 217.7 477.5 218C477.4 218.9 477.3 219.7 477 220.6C476.6 221.9 475.3 223.6 475.4 225C475.4 227 476.9 228.5 479 228.4C479.6 228.4 479.6 227.4 479 227.4C474.8 227.7 477.3 222.8 478 220.9C478.4 219.9 478.4 219 478.5 218C478.3 218.2 478.2 218.3 478 218.5C478.6 218.5 479.3 218.5 479.9 218.5C479.7 218.3 479.6 218.2 479.4 218C479.4 219.1 479.4 219.9 479.8 220.9C480.5 222.8 483.2 227.7 478.8 227.4C478.1 227.4 478.1 228.4 478.8 228.4Z" fill="white"/>
</g>
</g>
<g id="Group_34">
<path id="Vector_48" d="M502 222.6C503.1 222.8 504.2 222.1 504.8 221.1C504.9 220.9 505 220.7 505.1 220.4C505.2 219.9 505.1 219.5 504.9 219C504.4 217.4 503 215.9 503 214.2V213H501.2L501.1 214.4C500.7 216.1 499.8 217.5 499.3 219.1C499.2 219.5 499.1 220 499.2 220.4C499.2 220.6 499.3 220.8 499.5 221.1C500.1 222.1 501.2 222.8 502.3 222.6" fill="white"/>
<g id="Group_35">
<path id="Vector_49" d="M502 223.1C504 223.2 505.5 221.7 505.6 219.7C505.6 218.6 504.8 217.3 504.4 216.4C503.8 215.1 503.6 214.1 503.6 212.7C503.6 212.4 503.4 212.2 503.1 212.2C502.5 212.2 501.8 212.2 501.2 212.2C500.9 212.2 500.7 212.4 500.7 212.7C500.6 213.6 500.5 214.4 500.2 215.3C499.8 216.6 498.5 218.3 498.6 219.7C498.6 221.7 500.1 223.2 502.2 223.1C502.8 223.1 502.8 222.1 502.2 222.1C498 222.4 500.5 217.5 501.2 215.6C501.6 214.6 501.6 213.7 501.7 212.7C501.5 212.9 501.4 213 501.2 213.2C501.8 213.2 502.5 213.2 503.1 213.2C502.9 213 502.8 212.9 502.6 212.7C502.6 213.8 502.6 214.6 503 215.6C503.7 217.5 506.4 222.4 502 222.1C501.4 222 501.4 223 502 223.1Z" fill="white"/>
</g>
</g>
<g id="Group_36">
<path id="Vector_50" d="M525.2 216.3C526.3 216.5 527.4 215.8 528 214.8C528.1 214.6 528.2 214.4 528.3 214.1C528.4 213.6 528.1 213.2 528 212.7C527.5 211.1 527 209.6 526 207.9V206H524.4L524.3 207.7C523.9 209.4 523 211 522.5 212.6C522.4 213 522.3 213.6 522.4 214C522.4 214.2 522.5 214.5 522.7 214.7C523.3 215.7 524.4 216.5 525.5 216.2" fill="white"/>
<g id="Group_37">
<path id="Vector_51" d="M525.2 216.8C527.2 216.9 528.7 215.4 528.8 213.4C528.8 212.3 528 211 527.6 210.1C527 208.8 526.8 207.8 526.8 206.4C526.8 206.1 526.6 205.9 526.3 205.9C525.7 205.9 525 205.9 524.4 205.9C524.1 205.9 523.9 206.1 523.9 206.4C523.8 207.3 523.7 208.1 523.4 209C523 210.3 521.7 212 521.8 213.4C521.8 215.4 523.3 216.9 525.4 216.8C526 216.8 526 215.8 525.4 215.8C521.2 216.1 523.7 211.2 524.4 209.3C524.8 208.3 524.8 207.4 524.9 206.4C524.7 206.6 524.6 206.7 524.4 206.9C525 206.9 525.7 206.9 526.3 206.9C526.1 206.7 526 206.6 525.8 206.4C525.8 207.5 525.8 208.3 526.2 209.3C526.9 211.2 529.6 216.1 525.2 215.8C524.6 215.8 524.6 216.8 525.2 216.8Z" fill="white"/>
</g>
</g>
</g>
<g id="awning">
<path id="Vector_52" d="M192.7 170H481.3L540 202H137.3L192.7 170Z" fill="url(#paint0_linear)"/>
<path id="Vector_53" d="M540 201.9L492.3 325.6" stroke="black" stroke-width="4" stroke-miterlimit="10"/>
<path id="Vector_54" d="M137.3 201.9L189.1 325.6" stroke="black" stroke-width="4" stroke-miterlimit="10"/>
</g>
<g id="chair fabric">
<path id="Vector_55" d="M235.9 397.5L216.8 357.1" stroke="black" stroke-miterlimit="10"/>
<path id="Vector_56" d="M177.2 395.3L189.1 384.4L203.9 355.6" stroke="black" stroke-miterlimit="10"/>
<g id="Group_38">
<path id="Vector_57" d="M224.4 355.6L224.2 357.6L187 355.1V351.7L228 354.4L224.4 355.6L188.4 353.4Z" fill="#F2F2F2"/>
<path id="Vector_58" d="M225 367.7L185.8 365L188.2 352.9L224.3 355.3L225 367.7Z" fill="#B3B3B3"/>
</g>
<path id="Vector_59" d="M213.7 402.5L168.9 393.1C166.8 392.7 166.2 390 167.9 388.7L188.9 372.1C189.5 371.6 190.2 371.5 191 371.6L231.5 380.1C232.8 380.4 233.5 381.7 232.8 382.7L222 399.4C220.4 402 217 403.2 213.7 402.5Z" fill="url(#paint1_linear)"/>
<path id="Vector_60" d="M189.7 370.5L171 384.8C167.8 387.2 164.5 387.3 163.7 384.7L151.9 343.6C151.2 341 153.8 338.4 157.4 337.7L179 333.8C181.1 333.4 183.1 334.6 183.6 336.4L191.8 364.9C192.5 366.6 191.5 369.1 189.7 370.5Z" fill="url(#paint2_linear)"/>
</g>
<g id="chair support">
<path id="Vector_61" d="M189.4 376.9L211.9 430.3L236 397.8L235.9 397.5" stroke="black" stroke-miterlimit="10"/>
<path id="Vector_62" d="M157.6 364.7L205 372.8C205.3 372.8 205.4 373.2 205.2 373.3L201.7 376.6C201.6 376.7 201.5 376.7 201.4 376.7L153.2 367.7C152.9 367.6 152.8 367.3 153.1 367.1L157.4 364.7C157.5 364.7 157.5 364.7 157.6 364.7Z" fill="#F2F2F2"/>
<path id="Vector_63" d="M153 370.4V367.8L202 375.9V379.2L153 370.4Z" fill="#999999"/>
<path id="Vector_64" d="M171.9 374.2L155.2 415.4L177.2 395.3" stroke="black" stroke-miterlimit="10"/>
<path id="Vector_65" d="M201.3 375.8L205 373.1V376.2L201.3 379.2" fill="#F2F2F2"/>
<path id="XMLID 6" d="M224.3 357.6L228.1 356V354.5L224.3 355.3" fill="#F2F2F2"/>
</g>
<g id="grill">
<path id="Vector_66" d="M304.9 276.8H324.9C324.9 273.6 322.3 270.9 319 270.9H310.8C307.5 270.9 304.9 273.5 304.9 276.8Z" stroke="black" stroke-width="3" stroke-miterlimit="10"/>
<path id="Vector_67" d="M332.8 276.8H298.1C292.2 276.8 287.4 281.6 287.4 287.5V295.7H343.5V287.5C343.5 281.6 338.7 276.8 332.8 276.8Z" fill="#000827" stroke="black" stroke-miterlimit="10"/>
<path id="Vector_68" d="M345.1 309.1H285.6C284.7 309.1 283.9 308.3 283.9 307.4V301.5H347V307.3C347 308.3 346.1 309.1 345.1 309.1Z" fill="#000827" stroke="black" stroke-miterlimit="10"/>
<path id="Vector_69" d="M347 301.4H283.9L287.4 295.7H343.5L347 301.4Z" fill="#BF7B14" stroke="black" stroke-miterlimit="10"/>
</g>
<g id="fireflies">
<path id="Vector_70" d="M106.4 179.6C108.057 179.6 109.4 178.257 109.4 176.6C109.4 174.943 108.057 173.6 106.4 173.6C104.743 173.6 103.4 174.943 103.4 176.6C103.4 178.257 104.743 179.6 106.4 179.6Z" fill="#FCEE21"/>
<path id="Vector_71" d="M203.8 164.4C205.457 164.4 206.8 163.057 206.8 161.4C206.8 159.743 205.457 158.4 203.8 158.4C202.143 158.4 200.8 159.743 200.8 161.4C200.8 163.057 202.143 164.4 203.8 164.4Z" fill="#FCEE21"/>
<path id="Vector_72" d="M388.7 125C390.357 125 391.7 123.657 391.7 122C391.7 120.343 390.357 119 388.7 119C387.043 119 385.7 120.343 385.7 122C385.7 123.657 387.043 125 388.7 125Z" fill="#FCEE21"/>
<path id="Vector_73" d="M571 265.3C572.657 265.3 574 263.957 574 262.3C574 260.643 572.657 259.3 571 259.3C569.343 259.3 568 260.643 568 262.3C568 263.957 569.343 265.3 571 265.3Z" fill="#FCEE21"/>
<path id="Vector_74" d="M628.2 272.5C629.857 272.5 631.2 271.157 631.2 269.5C631.2 267.843 629.857 266.5 628.2 266.5C626.543 266.5 625.2 267.843 625.2 269.5C625.2 271.157 626.543 272.5 628.2 272.5Z" fill="#FCEE21"/>
<path id="Vector_75" d="M560.3 120.6C561.957 120.6 563.3 119.257 563.3 117.6C563.3 115.943 561.957 114.6 560.3 114.6C558.643 114.6 557.3 115.943 557.3 117.6C557.3 119.257 558.643 120.6 560.3 120.6Z" fill="#FCEE21"/>
<path id="Vector_76" d="M658.6 188.5C660.257 188.5 661.6 187.157 661.6 185.5C661.6 183.843 660.257 182.5 658.6 182.5C656.943 182.5 655.6 183.843 655.6 185.5C655.6 187.157 656.943 188.5 658.6 188.5Z" fill="#FCEE21"/>
<path id="Vector_77" d="M521 99.1C522.657 99.1 524 97.7569 524 96.1C524 94.4432 522.657 93.1 521 93.1C519.343 93.1 518 94.4432 518 96.1C518 97.7569 519.343 99.1 521 99.1Z" fill="#FCEE21"/>
<path id="Vector_78" d="M489.7 346.6C491.357 346.6 492.7 345.257 492.7 343.6C492.7 341.943 491.357 340.6 489.7 340.6C488.043 340.6 486.7 341.943 486.7 343.6C486.7 345.257 488.043 346.6 489.7 346.6Z" fill="#FCEE21"/>
<path id="Vector_79" d="M334.2 330.6C335.857 330.6 337.2 329.257 337.2 327.6C337.2 325.943 335.857 324.6 334.2 324.6C332.543 324.6 331.2 325.943 331.2 327.6C331.2 329.257 332.543 330.6 334.2 330.6Z" fill="#FCEE21"/>
<path id="Vector_80" d="M190.4 265.3C192.057 265.3 193.4 263.957 193.4 262.3C193.4 260.643 192.057 259.3 190.4 259.3C188.743 259.3 187.4 260.643 187.4 262.3C187.4 263.957 188.743 265.3 190.4 265.3Z" fill="#FCEE21"/>
<path id="Vector_81" d="M106.4 313.6C108.057 313.6 109.4 312.257 109.4 310.6C109.4 308.943 108.057 307.6 106.4 307.6C104.743 307.6 103.4 308.943 103.4 310.6C103.4 312.257 104.743 313.6 106.4 313.6Z" fill="#FCEE21"/>
</g>
</g>
<defs>
<linearGradient id="paint0_linear" x1="344.299" y1="451.871" x2="335.401" y2="59.7642" gradientUnits="userSpaceOnUse">
<stop offset="0.4187" stop-color="#FFA41B"/>
<stop offset="0.4583" stop-color="#FC9E1D"/>
<stop offset="0.5098" stop-color="#F28E24"/>
<stop offset="0.5678" stop-color="#E2732F"/>
<stop offset="0.6306" stop-color="#CC4E3E"/>
<stop offset="0.6965" stop-color="#B01E51"/>
<stop offset="0.734" stop-color="#9E005D"/>
</linearGradient>
<linearGradient id="paint1_linear" x1="151.836" y1="462.631" x2="227.489" y2="342.301" gradientUnits="userSpaceOnUse">
<stop offset="0.2414" stop-color="#9E005D"/>
<stop offset="0.3897" stop-color="#A0035C"/>
<stop offset="0.5025" stop-color="#A60D58"/>
<stop offset="0.6036" stop-color="#AF1D51"/>
<stop offset="0.6978" stop-color="#BD3448"/>
<stop offset="0.7873" stop-color="#CE523C"/>
<stop offset="0.8732" stop-color="#E4762D"/>
<stop offset="0.9548" stop-color="#FDA11C"/>
<stop offset="0.9606" stop-color="#FFA41B"/>
</linearGradient>
<linearGradient id="paint2_linear" x1="91.2242" y1="416.37" x2="223.914" y2="314.953" gradientUnits="userSpaceOnUse">
<stop stop-color="#005082"/>
<stop offset="0.1227" stop-color="#034E81"/>
<stop offset="0.216" stop-color="#0D4A7F"/>
<stop offset="0.2996" stop-color="#1D417B"/>
<stop offset="0.3775" stop-color="#343676"/>
<stop offset="0.4515" stop-color="#52276F"/>
<stop offset="0.5216" stop-color="#761466"/>
<stop offset="0.5862" stop-color="#9E005D"/>
</linearGradient>
</defs>
</svg>
